<svg xmlns="http://www.w3.org/2000/svg" >
    <symbol id="ICON_TEMPERATURE" fill="currentColor" viewBox="0 0 11 21">
        <path fill="currentColor" d="M6.57508 13.6007V9.04811C6.57508 8.79551 6.47626 8.55325 6.30036 8.37464C6.12447 8.19602 5.8859 8.09568 5.63714 8.09568C5.38838 8.09568 5.14981 8.19602 4.97391 8.37464C4.79801 8.55325 4.69919 8.79551 4.69919 9.04811V13.6007C4.41568 13.7669 4.17993 14.0056 4.01538 14.293C3.85084 14.5804 3.76322 14.9065 3.76125 15.2389C3.76125 15.7441 3.95889 16.2286 4.31068 16.5859C4.66248 16.9431 5.13962 17.1438 5.63714 17.1438C6.13465 17.1438 6.61179 16.9431 6.96359 16.5859C7.31539 16.2286 7.51303 15.7441 7.51303 15.2389C7.51105 14.9065 7.42344 14.5804 7.25889 14.293C7.09435 14.0056 6.8586 13.7669 6.57508 13.6007ZM9.85789 11.4292V4.28595C9.85789 3.14924 9.4132 2.0591 8.62166 1.25532C7.83011 0.451554 6.75655 0 5.63714 0C4.51772 0 3.44416 0.451554 2.65262 1.25532C1.86107 2.0591 1.41639 3.14924 1.41639 4.28595V11.4292C0.768121 12.1751 0.322865 13.08 0.124663 14.0543C-0.0735396 15.0286 -0.0178199 16.0386 0.28631 16.9843C0.59044 17.93 1.13244 18.7788 1.8587 19.4465C2.58496 20.1143 3.47032 20.5779 4.42719 20.7916C4.82468 20.8836 5.22975 20.9378 5.63714 20.9535C6.72574 20.9587 7.79244 20.6431 8.70798 20.045C9.62352 19.447 10.3486 18.5921 10.7953 17.5841C11.242 16.576 11.3913 15.458 11.2249 14.3656C11.0585 13.2731 10.5836 12.2531 9.85789 11.4292ZM7.982 18.1629C7.23572 18.8348 6.25716 19.1782 5.26157 19.1174C4.26598 19.0567 3.33493 18.5969 2.67323 17.8391C2.01154 17.0813 1.6734 16.0876 1.7332 15.0766C1.79301 14.0656 2.24586 13.1202 2.99213 12.4483C3.08076 12.3601 3.15126 12.2549 3.19956 12.1388C3.24787 12.0227 3.273 11.8981 3.27352 11.7721V4.28595C3.27352 3.65444 3.52056 3.04881 3.96031 2.60227C4.40006 2.15573 4.99648 1.90487 5.61838 1.90487C6.24027 1.90487 6.8367 2.15573 7.27644 2.60227C7.71619 3.04881 7.96324 3.65444 7.96324 4.28595V11.8483C7.96375 11.9743 7.98889 12.0989 8.03719 12.215C8.08549 12.3311 8.156 12.4363 8.24462 12.5245C8.62801 12.9006 8.92807 13.3553 9.12481 13.8584C9.32155 14.3615 9.41046 14.9014 9.38561 15.4421C9.36076 15.9828 9.22273 16.5119 8.9807 16.9942C8.73867 17.4765 8.39821 17.9009 7.982 18.2391V18.1629Z"/>
    </symbol>

    <symbol id="ICON_CALENDAR" fill="currentColor" viewBox="0 0 24 24">
        <path fill="currentColor" fill-rule="evenodd" clip-rule="evenodd" d="M7 1.75C7.41421 1.75 7.75 2.08579 7.75 2.5V3.26272C8.41203 3.24999 9.1414 3.24999 9.94358 3.25H14.0564C14.8586 3.24999 15.588 3.24999 16.25 3.26272V2.5C16.25 2.08579 16.5858 1.75 17 1.75C17.4142 1.75 17.75 2.08579 17.75 2.5V3.32709C18.0099 3.34691 18.2561 3.37182 18.489 3.40313C19.6614 3.56076 20.6104 3.89288 21.3588 4.64124C22.1071 5.38961 22.4392 6.33855 22.5969 7.51098C22.6472 7.88567 22.681 8.29459 22.7037 8.74007C22.7337 8.82106 22.75 8.90861 22.75 9C22.75 9.06932 22.7406 9.13644 22.723 9.20016C22.75 10.0021 22.75 10.9128 22.75 11.9436V14.0564C22.75 15.8942 22.75 17.3498 22.5969 18.489C22.4392 19.6614 22.1071 20.6104 21.3588 21.3588C20.6104 22.1071 19.6614 22.4392 18.489 22.5969C17.3498 22.75 15.8942 22.75 14.0564 22.75H9.94359C8.10583 22.75 6.65019 22.75 5.51098 22.5969C4.33856 22.4392 3.38961 22.1071 2.64124 21.3588C1.89288 20.6104 1.56076 19.6614 1.40314 18.489C1.24997 17.3498 1.24998 15.8942 1.25 14.0564V11.9436C1.24999 10.9127 1.24998 10.0021 1.27701 9.20017C1.25941 9.13645 1.25 9.06932 1.25 9C1.25 8.90862 1.26634 8.82105 1.29627 8.74006C1.31895 8.29458 1.35276 7.88566 1.40314 7.51098C1.56076 6.33856 1.89288 5.38961 2.64124 4.64124C3.38961 3.89288 4.33856 3.56076 5.51098 3.40313C5.7439 3.37182 5.99006 3.34691 6.25 3.32709V2.5C6.25 2.08579 6.58579 1.75 7 1.75ZM2.76309 9.75C2.75032 10.4027 2.75 11.146 2.75 12V14C2.75 15.9068 2.75159 17.2615 2.88976 18.2892C3.02502 19.2952 3.27869 19.8749 3.7019 20.2981C4.12511 20.7213 4.70476 20.975 5.71085 21.1102C6.73851 21.2484 8.09318 21.25 10 21.25H14C15.9068 21.25 17.2615 21.2484 18.2892 21.1102C19.2952 20.975 19.8749 20.7213 20.2981 20.2981C20.7213 19.8749 20.975 19.2952 21.1102 18.2892C21.2484 17.2615 21.25 15.9068 21.25 14V12C21.25 11.146 21.2497 10.4027 21.2369 9.75H2.76309ZM21.1683 8.25H2.83168C2.8477 8.06061 2.86685 7.88123 2.88976 7.71085C3.02502 6.70476 3.27869 6.12511 3.7019 5.7019C4.12511 5.27869 4.70476 5.02502 5.71085 4.88976C6.73851 4.75159 8.09318 4.75 10 4.75H14C15.9068 4.75 17.2615 4.75159 18.2892 4.88976C19.2952 5.02502 19.8749 5.27869 20.2981 5.7019C20.7213 6.12511 20.975 6.70476 21.1102 7.71085C21.1331 7.88123 21.1523 8.06061 21.1683 8.25ZM16.5 15.75C16.0858 15.75 15.75 16.0858 15.75 16.5C15.75 16.9142 16.0858 17.25 16.5 17.25C16.9142 17.25 17.25 16.9142 17.25 16.5C17.25 16.0858 16.9142 15.75 16.5 15.75ZM14.25 16.5C14.25 15.2574 15.2574 14.25 16.5 14.25C17.7426 14.25 18.75 15.2574 18.75 16.5C18.75 17.7426 17.7426 18.75 16.5 18.75C15.2574 18.75 14.25 17.7426 14.25 16.5Z"/>
    </symbol>

    <symbol id="ICON_CLOCK" fill="currentColor" viewBox="0 0 24 24">
        <path fill-rule="evenodd" clip-rule="evenodd" fill="currentColor" d="M12 2.75C6.89137 2.75 2.75 6.89137 2.75 12C2.75 17.1086 6.89137 21.25 12 21.25C17.1086 21.25 21.25 17.1086 21.25 12C21.25 6.89137 17.1086 2.75 12 2.75ZM1.25 12C1.25 6.06294 6.06294 1.25 12 1.25C17.9371 1.25 22.75 6.06294 22.75 12C22.75 17.9371 17.9371 22.75 12 22.75C6.06294 22.75 1.25 17.9371 1.25 12ZM12 7.25C12.4142 7.25 12.75 7.58579 12.75 8V11.6893L15.0303 13.9697C15.3232 14.2626 15.3232 14.7374 15.0303 15.0303C14.7374 15.3232 14.2626 15.3232 13.9697 15.0303L11.4697 12.5303C11.329 12.3897 11.25 12.1989 11.25 12V8C11.25 7.58579 11.5858 7.25 12 7.25Z"/>
    </symbol>

    <symbol id="ICON_ARROW-LEFT" fill="currentColor" viewBox="0 0 24 24">
        <path fill="currentColor" fill-rule="evenodd" clip-rule="evenodd" d="M15.4881 4.43057C15.8026 4.70014 15.839 5.17361 15.5694 5.48811L9.98781 12L15.5694 18.5119C15.839 18.8264 15.8026 19.2999 15.4881 19.5695C15.1736 19.839 14.7001 19.8026 14.4306 19.4881L8.43056 12.4881C8.18981 12.2072 8.18981 11.7928 8.43056 11.5119L14.4306 4.51192C14.7001 4.19743 15.1736 4.161 15.4881 4.43057Z"/>
    </symbol>

    <symbol id="ICON_ARROW-RIGHT" fill="currentColor" viewBox="0 0 24 24">
        <path fill="currentColor" fill-rule="evenodd" clip-rule="evenodd" d="M8.51192 4.43057C8.82641 4.161 9.29989 4.19743 9.56946 4.51192L15.5695 11.5119C15.8102 11.7928 15.8102 12.2072 15.5695 12.4881L9.56946 19.4881C9.29989 19.8026 8.82641 19.839 8.51192 19.5695C8.19743 19.2999 8.161 18.8264 8.43057 18.5119L14.0122 12L8.43057 5.48811C8.161 5.17361 8.19743 4.70014 8.51192 4.43057Z"/>
    </symbol>

    <symbol id="ICON_COPY" fill="currentColor" viewBox="0 0 24 24">
        <path fill="currentColor" fill-rule="evenodd" clip-rule="evenodd" d="M15 1.25H10.9436C9.10583 1.24998 7.65019 1.24997 6.51098 1.40314C5.33856 1.56076 4.38961 1.89288 3.64124 2.64124C2.89288 3.38961 2.56076 4.33856 2.40314 5.51098C2.24997 6.65019 2.24998 8.10582 2.25 9.94357V16C2.25 17.8722 3.62205 19.424 5.41551 19.7047C5.55348 20.4687 5.81753 21.1208 6.34835 21.6517C6.95027 22.2536 7.70814 22.5125 8.60825 22.6335C9.47522 22.75 10.5775 22.75 11.9451 22.75H15.0549C16.4225 22.75 17.5248 22.75 18.3918 22.6335C19.2919 22.5125 20.0497 22.2536 20.6517 21.6517C21.2536 21.0497 21.5125 20.2919 21.6335 19.3918C21.75 18.5248 21.75 17.4225 21.75 16.0549V10.9451C21.75 9.57754 21.75 8.47522 21.6335 7.60825C21.5125 6.70814 21.2536 5.95027 20.6517 5.34835C20.1208 4.81753 19.4687 4.55348 18.7047 4.41551C18.424 2.62205 16.8722 1.25 15 1.25ZM17.1293 4.27117C16.8265 3.38623 15.9876 2.75 15 2.75H11C9.09318 2.75 7.73851 2.75159 6.71085 2.88976C5.70476 3.02502 5.12511 3.27869 4.7019 3.7019C4.27869 4.12511 4.02502 4.70476 3.88976 5.71085C3.75159 6.73851 3.75 8.09318 3.75 10V16C3.75 16.9876 4.38624 17.8265 5.27117 18.1293C5.24998 17.5194 5.24999 16.8297 5.25 16.0549V10.9451C5.24998 9.57754 5.24996 8.47522 5.36652 7.60825C5.48754 6.70814 5.74643 5.95027 6.34835 5.34835C6.95027 4.74643 7.70814 4.48754 8.60825 4.36652C9.47522 4.24996 10.5775 4.24998 11.9451 4.25H15.0549C15.8297 4.24999 16.5194 4.24998 17.1293 4.27117ZM7.40901 6.40901C7.68577 6.13225 8.07435 5.9518 8.80812 5.85315C9.56347 5.75159 10.5646 5.75 12 5.75H15C16.4354 5.75 17.4365 5.75159 18.1919 5.85315C18.9257 5.9518 19.3142 6.13225 19.591 6.40901C19.8678 6.68577 20.0482 7.07435 20.1469 7.80812C20.2484 8.56347 20.25 9.56458 20.25 11V16C20.25 17.4354 20.2484 18.4365 20.1469 19.1919C20.0482 19.9257 19.8678 20.3142 19.591 20.591C19.3142 20.8678 18.9257 21.0482 18.1919 21.1469C17.4365 21.2484 16.4354 21.25 15 21.25H12C10.5646 21.25 9.56347 21.2484 8.80812 21.1469C8.07435 21.0482 7.68577 20.8678 7.40901 20.591C7.13225 20.3142 6.9518 19.9257 6.85315 19.1919C6.75159 18.4365 6.75 17.4354 6.75 16V11C6.75 9.56458 6.75159 8.56347 6.85315 7.80812C6.9518 7.07435 7.13225 6.68577 7.40901 6.40901Z"/>
    </symbol>

    <symbol id="ICON_EYE" fill="currentColor" viewBox="0 0 24 24">
        <path fill="currentColor" fill-rule="evenodd" clip-rule="evenodd" d="M12 8.25C9.92893 8.25 8.25 9.92893 8.25 12C8.25 14.0711 9.92893 15.75 12 15.75C14.0711 15.75 15.75 14.0711 15.75 12C15.75 9.92893 14.0711 8.25 12 8.25ZM9.75 12C9.75 10.7574 10.7574 9.75 12 9.75C13.2426 9.75 14.25 10.7574 14.25 12C14.25 13.2426 13.2426 14.25 12 14.25C10.7574 14.25 9.75 13.2426 9.75 12Z" />
        <path fill="currentColor" fill-rule="evenodd" clip-rule="evenodd" d="M12 3.25C7.48587 3.25 4.44529 5.9542 2.68057 8.24686L2.64874 8.2882C2.24964 8.80653 1.88206 9.28392 1.63269 9.8484C1.36564 10.4529 1.25 11.1117 1.25 12C1.25 12.8883 1.36564 13.5471 1.63269 14.1516C1.88206 14.7161 2.24964 15.1935 2.64875 15.7118L2.68057 15.7531C4.44529 18.0458 7.48587 20.75 12 20.75C16.5141 20.75 19.5547 18.0458 21.3194 15.7531L21.3512 15.7118C21.7504 15.1935 22.1179 14.7161 22.3673 14.1516C22.6344 13.5471 22.75 12.8883 22.75 12C22.75 11.1117 22.6344 10.4529 22.3673 9.8484C22.1179 9.28391 21.7504 8.80652 21.3512 8.28818L21.3194 8.24686C19.5547 5.9542 16.5141 3.25 12 3.25ZM3.86922 9.1618C5.49864 7.04492 8.15036 4.75 12 4.75C15.8496 4.75 18.5014 7.04492 20.1308 9.1618C20.5694 9.73159 20.8263 10.0721 20.9952 10.4545C21.1532 10.812 21.25 11.2489 21.25 12C21.25 12.7511 21.1532 13.188 20.9952 13.5455C20.8263 13.9279 20.5694 14.2684 20.1308 14.8382C18.5014 16.9551 15.8496 19.25 12 19.25C8.15036 19.25 5.49864 16.9551 3.86922 14.8382C3.43064 14.2684 3.17374 13.9279 3.00476 13.5455C2.84684 13.188 2.75 12.7511 2.75 12C2.75 11.2489 2.84684 10.812 3.00476 10.4545C3.17374 10.0721 3.43063 9.73159 3.86922 9.1618Z" />
    </symbol>

    <symbol id="ICON_EYE-CLOSED" fill="currentColor" viewBox="0 0 24 24">
        <path fill="currentColor" fill-rule="evenodd" clip-rule="evenodd" d="M22.2954 6.31083C22.6761 6.474 22.8524 6.91491 22.6893 7.29563L21.9999 7.00019C22.6893 7.29563 22.6894 7.29546 22.6893 7.29563L22.6886 7.29731L22.6875 7.2998L22.6843 7.30716L22.6736 7.33123C22.6646 7.35137 22.6518 7.37958 22.6352 7.41527C22.6019 7.48662 22.5533 7.58794 22.4888 7.71435C22.3599 7.967 22.1675 8.32087 21.9084 8.73666C21.4828 9.4197 20.8724 10.2778 20.0619 11.1304L21.0303 12.0987C21.3231 12.3916 21.3231 12.8665 21.0303 13.1594C20.7374 13.4523 20.2625 13.4523 19.9696 13.1594L18.969 12.1588C18.3093 12.7115 17.5528 13.2302 16.695 13.6564L17.6286 15.0912C17.8545 15.4383 17.7562 15.9029 17.409 16.1288C17.0618 16.3547 16.5972 16.2564 16.3713 15.9092L15.2821 14.2353C14.5028 14.4898 13.659 14.6628 12.7499 14.7248V16.5002C12.7499 16.9144 12.4141 17.2502 11.9999 17.2502C11.5857 17.2502 11.2499 16.9144 11.2499 16.5002V14.7248C10.3689 14.6647 9.54909 14.5004 8.78982 14.2586L7.71575 15.9093C7.48984 16.2565 7.02526 16.3548 6.67807 16.1289C6.33089 15.903 6.23257 15.4384 6.45847 15.0912L7.37089 13.689C6.5065 13.2668 5.74381 12.7504 5.07842 12.1984L4.11744 13.1594C3.82455 13.4523 3.34968 13.4523 3.05678 13.1594C2.76389 12.8665 2.76389 12.3917 3.05678 12.0988L3.98055 11.175C3.15599 10.3153 2.53525 9.44675 2.10277 8.75486C1.83984 8.33423 1.6446 7.97584 1.51388 7.71988C1.44848 7.59182 1.3991 7.48914 1.36537 7.41683C1.3485 7.38067 1.33553 7.35207 1.32641 7.33167L1.31562 7.30729L1.31238 7.29984L1.31129 7.29733L1.31088 7.29638C1.31081 7.2962 1.31056 7.29563 1.99992 7.00019L1.31088 7.29638C1.14772 6.91565 1.32376 6.474 1.70448 6.31083C2.08489 6.1478 2.52539 6.32374 2.68888 6.70381C2.68882 6.70368 2.68894 6.70394 2.68888 6.70381L2.68983 6.706L2.69591 6.71972C2.7018 6.73291 2.7114 6.7541 2.72472 6.78267C2.75139 6.83983 2.79296 6.92644 2.84976 7.03767C2.96345 7.26029 3.13762 7.58046 3.37472 7.95979C3.85033 8.72067 4.57157 9.70728 5.55561 10.6218C6.42151 11.4265 7.48259 12.1678 8.75165 12.656C9.70614 13.0232 10.7854 13.2502 11.9999 13.2502C13.2416 13.2502 14.342 13.013 15.3124 12.631C16.5738 12.1345 17.6277 11.3884 18.4866 10.5822C19.4562 9.67216 20.1668 8.69535 20.6354 7.9434C20.869 7.5685 21.0405 7.25246 21.1525 7.03286C21.2085 6.92315 21.2494 6.83776 21.2757 6.78144C21.2888 6.75328 21.2983 6.73242 21.3041 6.71943L21.31 6.70595L21.3106 6.70475C21.3105 6.70485 21.3106 6.70466 21.3106 6.70475M22.2954 6.31083C21.9147 6.14771 21.4738 6.32423 21.3106 6.70475L22.2954 6.31083ZM2.68888 6.70381C2.68882 6.70368 2.68894 6.70394 2.68888 6.70381V6.70381Z" />
    </symbol>

    <symbol id="ICON_CROSS" fill="currentColor" viewBox="0 0 24 24">
        <path fill="currentColor" d="M10.0303 8.96965C9.73741 8.67676 9.26253 8.67676 8.96964 8.96965C8.67675 9.26255 8.67675 9.73742 8.96964 10.0303L10.9393 12L8.96966 13.9697C8.67677 14.2625 8.67677 14.7374 8.96966 15.0303C9.26255 15.3232 9.73743 15.3232 10.0303 15.0303L12 13.0607L13.9696 15.0303C14.2625 15.3232 14.7374 15.3232 15.0303 15.0303C15.3232 14.7374 15.3232 14.2625 15.0303 13.9696L13.0606 12L15.0303 10.0303C15.3232 9.73744 15.3232 9.26257 15.0303 8.96968C14.7374 8.67678 14.2625 8.67678 13.9696 8.96968L12 10.9393L10.0303 8.96965Z" />
        <path fill="currentColor" fill-rule="evenodd" clip-rule="evenodd" d="M12 1.25C6.06294 1.25 1.25 6.06294 1.25 12C1.25 17.9371 6.06294 22.75 12 22.75C17.9371 22.75 22.75 17.9371 22.75 12C22.75 6.06294 17.9371 1.25 12 1.25ZM2.75 12C2.75 6.89137 6.89137 2.75 12 2.75C17.1086 2.75 21.25 6.89137 21.25 12C21.25 17.1086 17.1086 21.25 12 21.25C6.89137 21.25 2.75 17.1086 2.75 12Z" />
    </symbol>
</svg>